<mxfile host="app.diagrams.net" agent="Mozilla/5.0 (Windows NT 10.0; Win64; x64) AppleWebKit/537.36 (KHTML, like Gecko) Chrome/131.0.0.0 Safari/537.36 Edg/131.0.0.0" version="25.0.1">
  <diagram name="Page-1" id="b520641d-4fe3-3701-9064-5fc419738815">
    <mxGraphModel dx="949" dy="482" grid="1" gridSize="10" guides="1" tooltips="1" connect="1" arrows="1" fold="1" page="1" pageScale="1" pageWidth="1100" pageHeight="850" background="none" math="0" shadow="0">
      <root>
        <mxCell id="0" />
        <mxCell id="1" parent="0" />
        <mxCell id="pNEupVHdvYFWlxWI-u8S-1" value="Система учета пациентов" style="shape=ellipse;html=1;dashed=0;whiteSpace=wrap;aspect=fixed;perimeter=ellipsePerimeter;" vertex="1" parent="1">
          <mxGeometry x="420" y="380" width="210" height="210" as="geometry" />
        </mxCell>
        <mxCell id="pNEupVHdvYFWlxWI-u8S-2" value="Пациент" style="html=1;dashed=0;whiteSpace=wrap;" vertex="1" parent="1">
          <mxGeometry x="230" y="460" width="100" height="50" as="geometry" />
        </mxCell>
        <mxCell id="pNEupVHdvYFWlxWI-u8S-3" value="Врач" style="html=1;dashed=0;whiteSpace=wrap;" vertex="1" parent="1">
          <mxGeometry x="475" y="210" width="100" height="50" as="geometry" />
        </mxCell>
        <mxCell id="pNEupVHdvYFWlxWI-u8S-4" value="Администратор" style="html=1;dashed=0;whiteSpace=wrap;" vertex="1" parent="1">
          <mxGeometry x="720" y="460" width="100" height="50" as="geometry" />
        </mxCell>
        <mxCell id="pNEupVHdvYFWlxWI-u8S-5" value="" style="endArrow=classic;html=1;rounded=0;exitX=1;exitY=0.25;exitDx=0;exitDy=0;entryX=0;entryY=0.5;entryDx=0;entryDy=0;" edge="1" parent="1" source="pNEupVHdvYFWlxWI-u8S-2" target="pNEupVHdvYFWlxWI-u8S-1">
          <mxGeometry width="50" height="50" relative="1" as="geometry">
            <mxPoint x="480" y="530" as="sourcePoint" />
            <mxPoint x="530" y="480" as="targetPoint" />
          </mxGeometry>
        </mxCell>
        <mxCell id="pNEupVHdvYFWlxWI-u8S-6" value="" style="endArrow=classic;html=1;rounded=0;exitX=0;exitY=1;exitDx=0;exitDy=0;entryX=0;entryY=0;entryDx=0;entryDy=0;" edge="1" parent="1" source="pNEupVHdvYFWlxWI-u8S-3" target="pNEupVHdvYFWlxWI-u8S-1">
          <mxGeometry width="50" height="50" relative="1" as="geometry">
            <mxPoint x="500" y="260" as="sourcePoint" />
            <mxPoint x="500" y="380" as="targetPoint" />
          </mxGeometry>
        </mxCell>
        <mxCell id="pNEupVHdvYFWlxWI-u8S-8" value="" style="endArrow=classic;html=1;rounded=0;entryX=1;entryY=1;entryDx=0;entryDy=0;exitX=1;exitY=0;exitDx=0;exitDy=0;" edge="1" parent="1" source="pNEupVHdvYFWlxWI-u8S-1" target="pNEupVHdvYFWlxWI-u8S-3">
          <mxGeometry width="50" height="50" relative="1" as="geometry">
            <mxPoint x="540" y="370" as="sourcePoint" />
            <mxPoint x="530" y="480" as="targetPoint" />
          </mxGeometry>
        </mxCell>
        <mxCell id="pNEupVHdvYFWlxWI-u8S-9" value="" style="endArrow=classic;html=1;rounded=0;exitX=0.016;exitY=0.608;exitDx=0;exitDy=0;exitPerimeter=0;entryX=1;entryY=0.75;entryDx=0;entryDy=0;" edge="1" parent="1" source="pNEupVHdvYFWlxWI-u8S-1" target="pNEupVHdvYFWlxWI-u8S-2">
          <mxGeometry width="50" height="50" relative="1" as="geometry">
            <mxPoint x="480" y="530" as="sourcePoint" />
            <mxPoint x="530" y="480" as="targetPoint" />
          </mxGeometry>
        </mxCell>
        <mxCell id="pNEupVHdvYFWlxWI-u8S-10" value="Регистрация" style="text;html=1;align=center;verticalAlign=middle;whiteSpace=wrap;rounded=0;" vertex="1" parent="1">
          <mxGeometry x="340" y="450" width="60" height="30" as="geometry" />
        </mxCell>
        <mxCell id="pNEupVHdvYFWlxWI-u8S-11" value="" style="endArrow=none;html=1;rounded=0;exitX=0.75;exitY=0;exitDx=0;exitDy=0;" edge="1" parent="1" source="pNEupVHdvYFWlxWI-u8S-2">
          <mxGeometry width="50" height="50" relative="1" as="geometry">
            <mxPoint x="510" y="530" as="sourcePoint" />
            <mxPoint x="330" y="430" as="targetPoint" />
          </mxGeometry>
        </mxCell>
        <mxCell id="pNEupVHdvYFWlxWI-u8S-12" value="" style="endArrow=classic;html=1;rounded=0;entryX=0.013;entryY=0.395;entryDx=0;entryDy=0;entryPerimeter=0;" edge="1" parent="1" target="pNEupVHdvYFWlxWI-u8S-1">
          <mxGeometry width="50" height="50" relative="1" as="geometry">
            <mxPoint x="330" y="430" as="sourcePoint" />
            <mxPoint x="560" y="480" as="targetPoint" />
          </mxGeometry>
        </mxCell>
        <mxCell id="pNEupVHdvYFWlxWI-u8S-13" value="Запись на прием" style="text;html=1;align=center;verticalAlign=middle;whiteSpace=wrap;rounded=0;" vertex="1" parent="1">
          <mxGeometry x="340" y="410" width="60" height="30" as="geometry" />
        </mxCell>
        <mxCell id="pNEupVHdvYFWlxWI-u8S-15" value="Получение своей истории болезни" style="text;html=1;align=center;verticalAlign=middle;whiteSpace=wrap;rounded=0;" vertex="1" parent="1">
          <mxGeometry x="330" y="520" width="100" height="30" as="geometry" />
        </mxCell>
        <mxCell id="pNEupVHdvYFWlxWI-u8S-16" value="Взаимодействия со свои пациентом&lt;div&gt;(назначение лечения, запись на следующий прием)&lt;/div&gt;" style="text;html=1;align=center;verticalAlign=middle;whiteSpace=wrap;rounded=0;" vertex="1" parent="1">
          <mxGeometry x="340" y="300" width="120" height="30" as="geometry" />
        </mxCell>
        <mxCell id="pNEupVHdvYFWlxWI-u8S-17" value="Полуение истории болезни своего пациента" style="text;html=1;align=center;verticalAlign=middle;whiteSpace=wrap;rounded=0;" vertex="1" parent="1">
          <mxGeometry x="590" y="310" width="90" height="30" as="geometry" />
        </mxCell>
        <mxCell id="pNEupVHdvYFWlxWI-u8S-18" value="" style="endArrow=classic;html=1;rounded=0;exitX=0.5;exitY=1;exitDx=0;exitDy=0;entryX=0.5;entryY=0;entryDx=0;entryDy=0;" edge="1" parent="1" source="pNEupVHdvYFWlxWI-u8S-3" target="pNEupVHdvYFWlxWI-u8S-1">
          <mxGeometry width="50" height="50" relative="1" as="geometry">
            <mxPoint x="540" y="450" as="sourcePoint" />
            <mxPoint x="590" y="400" as="targetPoint" />
          </mxGeometry>
        </mxCell>
        <mxCell id="pNEupVHdvYFWlxWI-u8S-19" value="Формирование отчетов" style="text;html=1;align=center;verticalAlign=middle;whiteSpace=wrap;rounded=0;" vertex="1" parent="1">
          <mxGeometry x="495" y="290" width="60" height="30" as="geometry" />
        </mxCell>
        <mxCell id="pNEupVHdvYFWlxWI-u8S-20" value="Формирование отчетов" style="text;html=1;align=center;verticalAlign=middle;whiteSpace=wrap;rounded=0;" vertex="1" parent="1">
          <mxGeometry x="640" y="430" width="60" height="30" as="geometry" />
        </mxCell>
        <mxCell id="pNEupVHdvYFWlxWI-u8S-21" value="" style="endArrow=classic;startArrow=classic;html=1;rounded=0;entryX=0;entryY=0;entryDx=0;entryDy=0;exitX=0.99;exitY=0.4;exitDx=0;exitDy=0;exitPerimeter=0;" edge="1" parent="1" source="pNEupVHdvYFWlxWI-u8S-1" target="pNEupVHdvYFWlxWI-u8S-4">
          <mxGeometry width="50" height="50" relative="1" as="geometry">
            <mxPoint x="540" y="450" as="sourcePoint" />
            <mxPoint x="590" y="400" as="targetPoint" />
          </mxGeometry>
        </mxCell>
        <mxCell id="pNEupVHdvYFWlxWI-u8S-22" value="" style="endArrow=classic;html=1;rounded=0;exitX=0;exitY=1;exitDx=0;exitDy=0;entryX=0.997;entryY=0.606;entryDx=0;entryDy=0;entryPerimeter=0;" edge="1" parent="1" source="pNEupVHdvYFWlxWI-u8S-4" target="pNEupVHdvYFWlxWI-u8S-1">
          <mxGeometry width="50" height="50" relative="1" as="geometry">
            <mxPoint x="540" y="450" as="sourcePoint" />
            <mxPoint x="590" y="400" as="targetPoint" />
          </mxGeometry>
        </mxCell>
        <mxCell id="pNEupVHdvYFWlxWI-u8S-23" value="Составление расписания" style="text;html=1;align=center;verticalAlign=middle;whiteSpace=wrap;rounded=0;" vertex="1" parent="1">
          <mxGeometry x="650" y="510" width="60" height="30" as="geometry" />
        </mxCell>
      </root>
    </mxGraphModel>
  </diagram>
</mxfile>
